<svg width="30" height="31" viewBox="0 0 30 31" fill="none" xmlns="http://www.w3.org/2000/svg">
<rect y="0.5" width="30" height="30" rx="3" fill="#EB2543"/>
<path d="M15 9.25C14.4016 9.25 13.9164 9.73513 13.9164 10.3336L13.9164 14.4164H9.83357C9.23513 14.4164 8.75 14.9016 8.75 15.5C8.75 16.0984 9.23513 16.5836 9.83357 16.5836H13.9164V20.6664C13.9164 21.2649 14.4016 21.75 15 21.75C15.5984 21.75 16.0836 21.2649 16.0836 20.6664L16.0836 16.5836L20.1664 16.5836C20.7649 16.5836 21.25 16.0984 21.25 15.5C21.25 14.9016 20.7649 14.4164 20.1664 14.4164H16.0836V10.3336C16.0836 9.73513 15.5984 9.25 15 9.25Z" fill="white"/>
</svg>
