<svg width="760" height="933" viewBox="0 0 760 933" fill="none" xmlns="http://www.w3.org/2000/svg">
<path d="M-27.7027 41C33.9886 46.7449 28.9458 119.873 67.4998 150.165C72.0758 153.761 75.5937 159.539 80.6039 162.442C85.9361 165.532 94.4344 166.546 100.497 167.441C125.014 171.058 152.43 170.481 177.227 170.675C206.144 170.902 234.664 174.645 263.667 174.645C284.607 174.645 302.423 175.128 322.715 179.938C337.429 183.426 350.68 188.322 363.369 196.111C373.166 202.124 379.837 214.264 388.315 221.987C399.177 231.882 414.919 240.025 429.916 242.644C439.761 244.363 450.114 243.217 460.072 243.526C476.747 244.043 493.507 246.075 510.041 248.084C527.624 250.219 553.858 248.837 568.773 259.331C578.124 265.91 586.097 270.725 593.244 279.473C601.187 289.195 608.094 301.58 613.059 312.848C620.967 330.798 629.53 349.688 634.373 368.57C646.796 417.015 649.915 465.957 654.976 515.447C658.454 549.457 661.967 582.658 676.29 614.394C687.293 638.773 698.236 663.434 711.892 686.657C722.072 703.968 719.831 725.626 719.707 744.658C719.605 760.473 719.51 780.595 706.603 792.882C690.676 808.043 673.425 818.723 650.95 822.875C628.374 827.045 603.409 826.709 580.456 825.521C568.529 824.904 556.237 823.191 544.617 820.669C530.578 817.623 515.189 818.971 500.884 819.052C466.049 819.25 430.815 822.63 397.472 832.284C385.226 835.83 373.714 841.056 361.554 844.781C345.947 849.562 329.821 852.589 314.031 856.764C284.778 864.499 256.565 866.688 226.328 866.688C209.272 866.688 193.741 864.437 176.912 863.012C153.294 861.013 130.529 869.647 111.549 882.272C105.245 886.465 95.6005 887.859 88.1033 887.859C72.8761 887.859 60.0517 890.805 46.1068 896.534C37.1751 900.203 25.3593 908.306 19.5038 915.647C14.2388 922.247 6.51831 927.547 -2.04696 929.541C-19.7059 933.652 -4.87992 909.011 -1.02073 901.68C12.1111 876.733 39.2471 861.036 58.3426 840.517C72.8666 824.911 101.537 814.607 123.153 813.833C155.964 812.657 187.949 815.19 220.329 808.319C250.551 801.907 277.969 800.527 308.9 800.527C359.656 800.527 412.709 804.681 462.835 795.234C494.22 789.319 526.511 789.941 558.353 789.941C578.593 789.941 598.941 790.399 619.137 788.985C634.726 787.895 645.3 787.4 653.634 775.459C661.902 763.615 662.87 749.411 662.87 735.689C662.87 726.478 663.292 719.175 659.713 710.842C657.492 705.672 653.642 701.1 650.713 696.287C634.232 669.202 624.536 640.881 613.848 611.454C595.609 561.238 588.982 507.968 588.982 455.167C588.982 408.687 586.081 360.643 567.747 316.891C564.087 308.158 561.967 297.545 553.458 291.382C546.968 286.681 540.499 285.925 532.46 285.501C514.027 284.53 494.496 282.87 476.097 285.06C446.589 288.572 415.3 292.232 385.473 289.544C368.56 288.02 350.253 283.002 334.003 278.444C312.572 272.433 291.348 265.34 270.377 258.081C238.16 246.93 210.359 228.749 178.964 216.253C151.656 205.383 121.377 203.755 92.445 199.492C73.3724 196.682 48.7054 198.046 31.3449 189.127C14.4503 180.447 -1.00592 163.996 -9.78314 148.254C-15.6175 137.79 -22.0189 124.766 -22.0189 112.748C-22.0189 103.536 -16.0484 113.744 -12.2303 117.6C6.89654 136.916 29.0325 150.583 54.3956 161.854C77.909 172.302 102.66 179.684 127.889 185.525C167.68 194.736 207.774 203.704 248.195 210.225C265.026 212.94 281.243 217.14 297.928 220.296C311.343 222.834 325.187 223.564 337.003 230.514C360.8 244.51 380.803 262.298 402.05 279.179C415.859 290.151 430.776 300.536 443.099 312.995C457.012 327.061 469.593 343.355 482.254 358.425C505.856 386.518 522.231 419.531 534.276 453.182C539.486 467.737 547.154 481.422 552.037 496.04C559.441 518.199 562.98 540.581 566.247 563.524C572.301 606.05 575.184 649.702 576.114 692.611C576.53 711.751 576.616 731.032 576.114 750.171C575.826 761.198 574.634 774.316 567.036 783.472C562.987 788.352 556.687 792.083 550.774 794.646C528.59 804.263 501.817 808.166 477.833 810.966C377.462 822.68 274.99 815.638 174.07 818.758C157.526 819.269 141.007 819.398 124.495 820.669C108.98 821.863 95.713 827.657 81.0775 831.99C58.3182 838.729 35.3569 843.933 12.8728 851.471C7.27118 853.349 -9.84603 860.973 -13.5723 853.382C-19.8059 840.684 -22.0941 821.736 -22.8084 807.878C-23.9261 786.193 -18.989 764.351 -16.4931 742.893C-14.5095 725.84 -13.5766 708.868 -13.4934 691.729C-13.2232 636.137 -19.1771 580.903 -19.1771 525.298C-19.1771 473.418 -28.6598 421.565 -31.9655 369.746C-34.6555 327.578 -35.733 285.36 -37.5703 243.158C-37.7857 238.21 -42.4925 213.426 -38.2018 207.211C-37.3617 205.994 -24.5465 214.95 -23.3609 215.665C3.12605 231.625 19.0828 254.392 39.0811 276.533C45.7878 283.958 52.9675 292.414 61.5003 298.145C72.4261 305.484 88.962 307.25 101.602 309.613C142.844 317.324 181.307 319.214 221.276 305.791C223.974 304.885 251.72 298.813 243.932 292.044C238.198 287.06 228.099 284.54 220.96 282.708C197.937 276.798 173.729 274.37 150.072 271.828C119.054 268.495 87.996 265.947 56.7638 265.947C37.7539 265.947 23.1372 265.21 17.2935 285.501C7.44511 319.699 14.5269 357.004 24.2403 390.329C27.9454 403.041 32.5766 419.537 41.2125 430.173C46.7399 436.981 58.5527 436.226 66.4735 435.907C99.1838 434.59 132.043 427.436 164.123 421.94C208.532 414.331 252.958 406.586 297.059 397.534C327.145 391.358 357.142 384.461 385.157 372.245C396.762 367.185 401.968 362.082 407.102 351.956C408.651 348.903 409.108 344.728 408.523 341.37C407.707 336.685 399.489 335.875 395.893 335.342C378.518 332.768 360.528 332.849 343.003 331.814C328.121 330.934 312.579 328.773 297.691 330.785C278.052 333.438 257.154 341.46 240.617 351.662C237.805 353.397 235.328 355.825 235.328 359.16C235.328 363.939 245.672 360.162 250.721 359.307C347.277 342.959 446.248 338.724 544.301 338.724C545.692 338.724 552.181 337.854 553.143 339.018C556.366 342.921 552.81 355.808 550.617 359.601C541.961 374.571 515.319 376.389 500.095 379.45C442.228 391.083 383.926 386.591 325.32 384.301C252.69 381.464 178.266 387.072 106.26 377.097C77.7423 373.147 49.0253 367.836 20.1354 366.585C10.2038 366.155 11.355 367.046 13.8201 376.068C17.0064 387.73 20.2798 410.634 34.8183 415.912C52.9591 422.497 80.4775 418.765 98.9181 419.146C185.84 420.941 272.555 426.176 359.264 431.937C407.129 435.117 454.952 438.748 502.779 442.376C505.511 442.583 517.495 441.425 519.356 445.758C530.785 472.365 489.419 489.849 468.676 494.055C390.499 509.907 312.843 478.87 235.17 474.501C186.081 471.74 138.688 480.451 91.182 490.894C74.075 494.654 59.3595 501 43.3439 507.361C32.9929 511.472 21.0228 515.015 13.5833 523.386C-4.13203 543.32 -7.80963 570.095 -7.80963 595.134C-7.80963 624.696 -6.62382 654.231 -6.3887 683.79C-6.28904 696.318 -5.79163 733.633 -3.54683 721.281C4.37337 677.698 13.6193 634.723 15.3989 590.429C16.7496 556.812 15.0705 523.179 19.267 489.718C19.7064 486.214 23.7654 438.627 27.7137 438.627C34.2191 438.627 23.5956 532.043 23.1351 534.854C10.2039 613.818 -13.4043 691.161 -21.5453 770.828C-22.9665 784.735 -24.6798 800.114 -23.4399 814.2C-23.0499 818.63 -15.0824 809.741 -11.5988 806.702C30.5672 769.923 61.6619 728.636 82.9721 678.497C100.838 636.462 106.943 593.854 112.654 549.41C115.411 527.951 115.532 506.149 118.732 484.792C119.08 482.474 122.339 463.424 120.548 479.353C114.104 536.658 104.637 593.642 90.0768 649.68C77.6543 697.491 55.5284 743.321 44.8438 791.411C43.9006 795.657 43.481 782.808 43.4229 778.473C43.0832 753.168 43.4601 727.83 44.2123 702.535C45.6022 655.796 47.2428 608.611 52.1853 562.054C52.4161 559.88 54.8699 532.976 56.7638 533.825C71.3407 540.361 84.423 547.76 99.8654 553.085C129.648 563.356 162.355 568.271 190.963 581.314C206.8 588.534 221.286 600.147 227.276 616.012C232.501 629.852 231.088 646.659 230.591 661.001C229.173 701.933 220.312 742.893 204.225 781.046C200.658 789.505 195.095 797.529 192.147 806.187C190.095 812.215 192.488 810.085 196.094 805.82C246.861 745.767 291.212 677.513 314.663 603.809C317.744 594.124 324.612 591.61 334.793 588.812C380.673 576.205 432.897 575.371 480.044 579.403C495.344 580.711 517.799 581.937 526.619 596.31C533.256 607.127 532.106 622.513 532.144 634.39C532.232 661.891 532.094 690.833 519.672 716.282C517.763 720.192 515.719 726.077 511.936 728.926C499.131 738.567 473.208 740.86 458.256 743.408C376.743 757.296 292.838 754.653 210.619 763.403C191.775 765.409 174.532 770.854 156.071 774.063C134.254 777.855 111.887 780.135 89.9189 783.178C81.9723 784.279 73.944 784.987 66.0788 786.56C65.3253 786.71 49.154 791.03 52.9747 788.03C72.8412 772.431 102.345 763.799 126.232 756.126C171.453 741.599 218.147 731.484 264.536 720.84C321.774 707.705 375.653 692.323 429.837 670.852C452.225 661.98 482.451 654.927 500.568 638.8C510.997 629.517 504.296 618.031 491.727 613.733C471.79 606.916 448.446 605.031 427.627 601.53C405.973 597.888 383.643 594.345 361.554 594.62C347.574 594.793 335.342 598.856 322.478 603.515C296.799 612.814 270.879 621.432 244.958 630.126C207.153 642.806 171.547 656.283 139.573 679.305C126.269 688.885 114.232 698.215 98.2866 703.638C80.4838 709.693 81.267 696.64 82.0248 683.055C84.1982 644.094 97.9779 604.062 122.6 572.345C150.796 536.026 192.51 534.592 237.064 533.237C303.244 531.224 369.468 530.591 435.679 530.591C479.07 530.591 524.371 529.528 566.168 542.205C609.938 555.481 620.426 599.227 629.084 636.963C635.013 662.807 642.134 689.618 641.477 716.209C641.173 728.519 638.004 738.426 629.241 747.892C609.981 768.698 584.147 770.111 556.616 764.653C525.614 758.507 493.668 750.116 464.729 737.895C453.698 733.236 443.111 727.191 436.942 717.164C429.721 705.427 426.794 691.765 422.733 678.938C420.301 671.258 418.038 660.639 409.471 656.59C401.756 652.945 391.592 652.842 383.262 652.547C365.047 651.903 346.535 651.85 328.32 652.547C306.923 653.366 292.292 659.4 273.456 667.397C259.508 673.318 242.036 677.173 226.881 673.204C214.385 669.931 200.636 660.191 191.2 652.106C181.153 643.498 170.822 625.493 155.913 623.51C143.56 621.866 127.848 623.916 118.653 632.478" stroke="#E79505" stroke-opacity="0.92" stroke-width="80" stroke-linecap="round"/>
<g clip-path="url(#clip0_0_1)">
<path d="M562.561 655.759L172.978 651.229L173.798 585.048L179.807 585.117L180.417 535.857C180.574 524.251 185.325 513.178 193.628 505.066C201.931 496.955 213.108 492.468 224.707 492.59L515.481 495.97C527.079 496.118 538.142 500.864 546.242 509.166C554.342 517.468 558.818 528.649 558.687 540.255L558.077 589.515L563.38 589.577L562.561 655.759Z" fill="#E4E4E4"/>
<path d="M572.215 728.724L552.822 728.498L552.826 728.144C553.019 710.981 546.401 694.447 534.422 682.17C522.444 669.893 506.084 662.875 488.933 662.656L246.415 659.836C229.263 659.656 212.734 666.292 200.456 678.287C188.177 690.282 181.151 706.658 180.919 723.82L180.915 724.174L161.521 723.949C157.103 723.892 152.888 722.085 149.803 718.922C146.717 715.759 145.012 711.5 145.062 707.079L146.401 598.894C140.809 595.645 136.442 578.3 139.588 564.525C141.563 555.88 147.082 545.477 162.166 545.004C176.849 544.543 187.571 558.456 188.38 571.738C188.82 578.728 186.685 585.638 182.377 591.162L182.561 591.164L182.37 606.597C214.32 596.763 246.252 591.941 277.287 592.265C309.045 592.666 340.517 598.284 370.446 608.897C433.188 589.398 495.037 589.724 554.29 609.869L554.468 595.488L554.652 595.49C550.482 589.868 548.518 582.91 549.132 575.933C550.379 561.389 562.425 549.673 575.984 549.815L576.029 549.816C592.018 550.002 597.554 559.699 599.383 567.806C602.62 582.153 596.12 600.912 590.427 604.056L589.087 712.241C589.028 716.662 587.218 720.881 584.055 723.971C580.892 727.061 576.634 728.77 572.215 728.724Z" fill="#CACACA"/>
<path d="M464.223 698.515L473.501 705.315L504.157 672.72L490.463 662.684L464.223 698.515Z" fill="#FFB6B6"/>
<path d="M464.077 693.747L466.689 695.661L479.925 698.983L482.35 707.139L482.351 707.14C485.439 709.404 487.501 712.803 488.083 716.59C488.666 720.376 487.721 724.241 485.456 727.333L485.179 727.712L455.262 705.785L464.077 693.747Z" fill="#2F2E41"/>
<path d="M528.75 611.046L460.013 610.247C453.604 610.169 447.489 607.547 443.014 602.958C438.539 598.369 436.07 592.188 436.15 585.774C436.229 579.36 438.85 573.239 443.438 568.755C448.025 564.271 454.203 561.792 460.612 561.863L529.349 562.662C535.761 562.737 541.878 565.357 546.356 569.947C550.834 574.536 553.305 580.719 553.226 587.135C553.146 593.551 550.523 599.675 545.933 604.159C541.343 608.643 535.162 611.121 528.75 611.046Z" fill="#2F2E41"/>
<path d="M497.117 441.728L508.1 450.304L521.42 454.571C521.42 454.571 525.984 532.44 530.903 537.482C535.823 542.524 531.329 542.606 532.25 549.092C533.17 555.578 535.439 568.878 535.439 568.878C501.598 586.295 472.608 586.436 449.584 565.327C449.302 564.034 449.47 562.684 450.061 561.499C450.651 560.315 451.628 559.367 452.829 558.814C457.191 556.564 448.996 545.729 452.559 543.975C456.123 542.22 451.335 526.588 451.335 526.588L455.004 494.13L452.487 488.905L459.18 457.194L470.161 453.327L474.657 442.851L497.117 441.728Z" fill="#F50057"/>
<path d="M504.962 369.167C504.895 370.572 505.136 371.974 505.669 373.275C506.202 374.575 507.014 375.743 508.047 376.695C509.08 377.647 510.309 378.361 511.648 378.787C512.987 379.212 514.404 379.338 515.797 379.157L531.046 409.729L539.943 394.353L524.098 367.678C523.64 365.356 522.346 363.284 520.462 361.854C518.578 360.423 516.234 359.735 513.876 359.918C511.517 360.102 509.307 361.145 507.664 362.849C506.021 364.554 505.06 366.802 504.962 369.167L504.962 369.167Z" fill="#FFB6B6"/>
<path d="M531.184 376.908L564.055 429.273L563.941 429.511C563.811 429.784 556.019 446.097 548.479 461.034C547.318 463.334 546.163 465.601 545.043 467.773C544.56 468.71 544.083 469.627 543.615 470.525C540.451 476.582 537.69 481.587 536.049 483.96C532.42 489.327 527.065 493.292 520.876 495.196L520.72 495.234L520.573 495.171C517.573 493.863 515.109 491.57 513.587 488.671C512.066 485.772 511.577 482.44 512.202 479.225C515.301 463.715 521.96 449.136 531.653 436.638L537.175 429.535L518.802 388.241L531.184 376.908Z" fill="#F50057"/>
<path d="M473.453 362.433C473.485 363.838 473.209 365.234 472.644 366.522C472.079 367.81 471.238 368.958 470.182 369.886C469.126 370.815 467.879 371.5 466.53 371.894C465.181 372.288 463.762 372.381 462.373 372.167L446.372 402.376L437.858 386.798L454.358 360.499C454.874 358.188 456.219 356.147 458.138 354.761C460.057 353.375 462.417 352.741 464.77 352.979C467.124 353.217 469.307 354.311 470.908 356.054C472.508 357.796 473.413 360.066 473.452 362.433L473.453 362.433Z" fill="#FFB6B6"/>
<path d="M447.046 369.561L412.889 421.147L412.997 421.388C413.12 421.663 420.506 438.153 427.674 453.261C428.777 455.587 429.876 457.881 430.942 460.078C431.402 461.026 431.856 461.954 432.302 462.863C435.315 468.991 437.951 474.059 439.533 476.47C443.029 481.92 448.283 486.008 454.424 488.055L454.578 488.097L454.727 488.037C457.758 486.799 460.278 484.564 461.872 481.701C463.465 478.839 464.036 475.519 463.491 472.29C460.776 456.713 454.48 441.983 445.099 429.263L439.755 422.034L459.144 381.179L447.046 369.561Z" fill="#F50057"/>
<path d="M485.825 436.894C497.937 437.035 507.877 427.324 508.027 415.204C508.177 403.084 498.48 393.145 486.369 393.005C474.257 392.864 464.316 402.575 464.166 414.694C464.016 426.814 473.713 436.753 485.825 436.894Z" fill="#FFB6B6"/>
<path d="M468.468 395.889C470.336 390.66 479.359 387.123 493.92 386.785C508.481 386.448 511.96 403.654 511.96 403.654C521.579 411.654 501.226 432.536 500.263 431.764L500.749 427.802C501.554 421.24 504.693 416.148 500.867 409.254L497.111 409.254L489.972 410.542C489.526 410.622 489.067 410.553 488.665 410.347C488.263 410.14 487.94 409.807 487.746 409.399C487.552 408.99 487.498 408.529 487.592 408.086C487.685 407.644 487.922 407.244 488.265 406.949L488.331 406.892L488.172 406.64C485.649 407.762 483.05 408.801 480.305 408.93C477.216 409.076 473.858 407.807 472.413 405.073C472.028 404.322 471.797 403.501 471.734 402.658C467.551 404.274 465.585 409.385 465.585 409.385C465.585 409.385 466.599 401.118 468.468 395.889Z" fill="#2F2E41"/>
<path d="M524.067 689.874L515.195 697.211L482.718 666.483L495.811 655.654L524.067 689.874Z" fill="#FFB6B6"/>
<path d="M533.43 696.602L504.824 720.259L504.526 719.897C502.087 716.945 500.922 713.142 501.286 709.328C501.65 705.513 503.513 701.998 506.465 699.555L506.466 699.555L508.418 691.269L521.441 687.171L523.938 685.106L533.43 696.602Z" fill="#2F2E41"/>
<path d="M470.846 605.333L478.298 589.67C478.394 575.306 466.523 563.501 452.185 564.234C444.2 564.643 436.674 569.021 433.423 582.257C425.064 616.291 502.065 688.214 502.065 688.214L516.484 679.531L517.259 670.19L509.306 665.154L509.398 657.181L501.801 653.465L470.846 605.333Z" fill="#2F2E41"/>
<path d="M518.575 601.551L509.768 588.249C508.847 573.914 520.019 561.428 534.375 561.313C542.369 561.249 550.134 565.176 554.14 578.196C564.442 611.679 491.706 688.029 491.706 688.029L476.812 680.213L475.501 670.933L483.151 665.436L482.601 657.482L489.972 653.323L518.575 601.551Z" fill="#2F2E41"/>
<path d="M488.341 493.107L488.288 497.324L474.317 497.161L474.37 492.944L478.696 492.995L478.822 482.835L474.749 485.109L474.806 480.552L481.071 477.087L484.182 477.123L483.985 493.056L488.341 493.107Z" fill="white"/>
<path d="M491.471 494.955C490.164 493.166 489.531 490.592 489.573 487.234C489.614 483.932 490.31 481.407 491.661 479.658C492.377 478.837 493.263 478.181 494.258 477.736C495.252 477.291 496.331 477.066 497.421 477.079C498.51 477.092 499.583 477.341 500.566 477.809C501.549 478.278 502.419 478.954 503.115 479.792C504.422 481.571 505.056 484.112 505.015 487.414C504.973 490.772 504.277 493.33 502.926 495.088C502.211 495.913 501.326 496.573 500.331 497.021C499.336 497.469 498.256 497.694 497.166 497.681C496.075 497.669 495.001 497.418 494.017 496.947C493.034 496.476 492.165 495.796 491.471 494.955ZM499.185 492.228C499.682 490.653 499.903 489.004 499.839 487.353C499.942 485.738 499.761 484.116 499.304 482.564C499.188 482.138 498.937 481.762 498.588 481.493C498.239 481.223 497.812 481.074 497.371 481.069C496.93 481.064 496.5 481.203 496.144 481.464C495.789 481.726 495.528 482.096 495.402 482.518C494.907 484.06 494.686 485.676 494.748 487.294C494.643 488.942 494.824 490.596 495.282 492.183C495.395 492.611 495.645 492.991 495.994 493.263C496.343 493.536 496.772 493.686 497.215 493.691C497.658 493.696 498.09 493.556 498.446 493.292C498.802 493.028 499.061 492.654 499.185 492.228Z" fill="white"/>
<path d="M336.581 714.784L325.854 714.658L321.262 673.192L337.096 673.377L336.581 714.784Z" fill="#A0616A"/>
<path d="M336.821 725.987L303.83 725.602L303.836 725.184C303.878 721.777 305.271 718.525 307.709 716.143C310.147 713.761 313.43 712.446 316.835 712.485L316.836 712.485L322.919 707.98L334.105 712.687L336.985 712.72L336.821 725.987Z" fill="#2F2E41"/>
<path d="M412.49 715.666L423.217 715.79L428.833 674.443L412.999 674.26L412.49 715.666Z" fill="#A0616A"/>
<path d="M411.973 726.861L444.963 727.243L444.968 726.825C445.01 723.418 443.698 720.134 441.319 717.696C438.941 715.259 435.692 713.867 432.287 713.827L432.286 713.827L426.316 709.183L415.016 713.627L412.137 713.594L411.973 726.861Z" fill="#2F2E41"/>
<path d="M321.167 642.759C321.354 640.398 322.776 627.347 322.776 627.347L326.136 599.671L332.364 526.279L332.77 521.474L360.695 516.446L379.848 507.534L402.39 515.036L419.93 521.854C419.93 521.854 419.925 524.685 420.018 528.106C420.144 532.584 420.393 538.076 421.13 539.511C422.358 542.047 421.874 555.578 421.874 555.578C421.874 555.578 422.785 583.129 424.324 586.167C425.864 589.204 426.103 595.496 425.612 596.751C425.121 598.006 426.764 631.1 426.764 631.1C426.764 631.1 431.306 689.682 427.892 698.468C424.479 707.254 412.065 701.329 412.065 701.329C412.065 701.329 412.697 698.981 409.09 697.829C405.483 696.677 395.481 613.568 395.481 613.568C395.481 613.568 393.64 596.53 391.815 591.632C389.989 586.734 388.423 573.013 388.423 573.013C388.423 573.013 377.057 550.202 376.968 545.158C376.968 545.158 375.503 540.422 373.998 545.599C372.493 550.776 368.092 563.166 368.092 563.166L363.761 578.396L358.605 601.166L355.214 620.348C355.214 620.348 350.176 645.799 349.408 646.892C348.64 647.986 349.106 671.297 349.106 671.297C349.106 671.297 345.209 691.099 340.007 694.504C334.804 697.909 321.176 694.34 321.176 694.34C321.176 694.34 320.979 645.12 321.167 642.759Z" fill="#2F2E41"/>
<path d="M335.503 444.871L341.495 461.17L333.755 468.995L337.083 472.045L334.548 476.276L327.523 520.834L362.863 532.953L374.974 520.06L384.235 533.201L425.403 524.952L415.637 467.912L415.683 464.191L412.815 456.972L413.003 441.762L427.142 396.643L398.157 389.205L387.11 381.404L383.37 392.15L368.048 389.596L367.748 381.488L355.884 391.004L340.193 393.276L328.321 395.494L326.771 398.757L329.796 398.136L334.549 440.882L335.503 444.871Z" fill="#2F2E41"/>
<path d="M359.924 401.335L367.748 381.534L387.11 381.405L393.282 401.723L414.772 531.046C414.772 531.046 343.798 549.933 344.809 526.249C345.872 501.348 349.685 468.299 349.685 468.299L359.924 401.335Z" fill="#3F3D56"/>
<path d="M377.063 376.079C389.656 376.225 399.992 366.128 400.148 353.527C400.304 340.925 390.221 330.591 377.628 330.444C365.034 330.298 354.699 340.395 354.543 352.996C354.387 365.598 364.469 375.932 377.063 376.079Z" fill="#A0616A"/>
<path d="M353.403 336.428C357.165 332.428 361.9 325.081 376.003 322.137C393.429 318.498 401.447 334.303 397.061 334.51C409.828 338.542 401.268 364.984 397.621 362.715C397.59 362.693 397.56 362.669 397.531 362.643C395.573 361.164 393.938 359.301 392.724 357.168C391.511 355.034 390.745 352.676 390.473 350.235L389.854 343.947C389.691 349.056 384.464 349.671 379.155 347.727C379.484 346.611 380.099 345.599 380.937 344.792C381.776 343.985 382.811 343.411 383.939 343.126C380.64 346.098 376.368 348.203 370.429 348.82C371.192 346.009 372.668 343.951 374.953 342.747L374.745 342.538C372.552 344.167 370.268 345.731 367.647 346.45C364.697 347.259 361.181 346.762 359.196 344.436C358.661 343.795 358.261 343.052 358.018 342.253C358.403 346.304 355.634 350.892 353.537 350.074C351.788 349.713 350.898 339.091 353.403 336.428Z" fill="#2F2E41"/>
<path d="M405.476 352.33L425.782 387.483L441.199 380.417C441.199 380.417 415.196 347.101 414.367 346.142C414.747 344.541 414.632 342.864 414.039 341.331C413.446 339.798 412.401 338.481 411.043 337.556C409.685 336.63 408.078 336.139 406.435 336.148C404.791 336.156 403.189 336.664 401.839 337.603C400.489 338.543 399.456 339.87 398.876 341.409C398.296 342.948 398.197 344.627 398.591 346.223C398.985 347.819 399.854 349.258 401.084 350.348C402.313 351.439 403.845 352.13 405.476 352.33Z" fill="#A0616A"/>
<path d="M414.443 439.205L446.914 416.378C449.033 414.889 450.818 412.974 452.155 410.756C453.493 408.538 454.353 406.065 454.681 403.496C455.009 400.927 454.798 398.318 454.061 395.836C453.324 393.354 452.078 391.054 450.401 389.082L427.568 362.225L417.308 375.79L424.884 392.153L409.775 395.952L414.443 439.205Z" fill="#2F2E41"/>
<path d="M360.235 355.086L339.065 389.757L323.827 382.335C323.827 382.335 350.647 349.633 351.501 348.693C351.16 347.084 351.316 345.41 351.947 343.891C352.578 342.372 353.655 341.08 355.036 340.186C356.416 339.293 358.035 338.839 359.678 338.886C361.32 338.933 362.91 339.477 364.236 340.448C365.562 341.418 366.562 342.769 367.104 344.321C367.645 345.874 367.703 347.554 367.27 349.141C366.836 350.728 365.931 352.145 364.675 353.207C363.419 354.269 361.871 354.924 360.235 355.086Z" fill="#A0616A"/>
<path d="M349.121 441.727L317.224 418.152C315.143 416.614 313.406 414.658 312.124 412.41C310.842 410.161 310.043 407.669 309.778 405.093C309.514 402.517 309.789 399.914 310.587 397.45C311.386 394.986 312.689 392.715 314.413 390.783L337.905 364.465L347.826 378.264L339.847 394.447L354.858 398.595L349.121 441.727Z" fill="#2F2E41"/>
<path d="M381.764 435.61C382.48 436.479 382.85 437.582 382.8 438.708C382.811 439.823 382.438 440.908 381.744 441.78C380.995 442.682 380.013 443.361 378.905 443.743C376.228 444.636 373.329 444.602 370.675 443.647C369.577 443.24 368.612 442.538 367.886 441.619C367.213 440.731 366.867 439.637 366.906 438.523C366.883 437.383 367.279 436.275 368.019 435.408C368.828 434.53 369.896 433.933 371.067 433.703C370.046 433.373 369.141 432.758 368.458 431.932C367.829 431.148 367.5 430.166 367.531 429.161C367.524 428.106 367.882 427.08 368.543 426.258C369.251 425.401 370.178 424.752 371.225 424.378C373.694 423.52 376.385 423.552 378.832 424.467C379.87 424.865 380.78 425.535 381.468 426.408C382.108 427.246 382.44 428.279 382.407 429.334C382.412 430.359 382.054 431.353 381.397 432.139C380.714 432.947 379.805 433.533 378.787 433.821C379.939 434.099 380.978 434.723 381.764 435.61ZM377.044 439.858C377.319 439.685 377.544 439.444 377.696 439.158C377.849 438.872 377.923 438.55 377.913 438.226C377.924 437.898 377.858 437.573 377.719 437.276C377.58 436.979 377.373 436.719 377.114 436.519C376.522 435.931 375.725 435.597 374.891 435.587C374.056 435.577 373.251 435.893 372.645 436.467C372.381 436.661 372.167 436.916 372.021 437.209C371.874 437.503 371.8 437.827 371.804 438.155C371.785 438.479 371.852 438.802 371.997 439.092C372.142 439.381 372.361 439.628 372.632 439.806C373.303 440.186 374.06 440.389 374.831 440.398C375.602 440.407 376.363 440.221 377.044 439.858ZM373.185 428.251C372.947 428.438 372.757 428.681 372.633 428.958C372.509 429.235 372.454 429.538 372.472 429.841C372.457 431.087 373.276 431.926 374.93 432.361C376.594 431.965 377.434 431.145 377.45 429.899C377.476 429.597 377.429 429.293 377.311 429.013C377.194 428.733 377.011 428.486 376.777 428.292C376.245 427.944 375.624 427.755 374.988 427.748C374.351 427.74 373.726 427.915 373.185 428.251L373.185 428.251Z" fill="white"/>
<path d="M127.676 365.526C128.162 366.264 128.803 366.885 129.555 367.348C130.306 367.81 131.15 368.102 132.027 368.202C132.904 368.303 133.793 368.21 134.63 367.929C135.467 367.649 136.233 367.189 136.873 366.581L155.925 376.441L154.756 365.347L136.844 357.684C135.752 356.676 134.328 356.104 132.843 356.076C131.357 356.048 129.912 356.567 128.782 357.534C127.652 358.5 126.916 359.848 126.712 361.321C126.508 362.794 126.851 364.29 127.676 365.526Z" fill="#9E616A"/>
<path d="M206.432 411.167L196.968 404.469C196.968 404.469 186.047 403.6 184.446 400.104C182.845 396.607 182.553 397.773 180.806 397.337C179.059 396.901 178.219 391.656 175.274 392.24C168.647 393.552 137.817 372.637 141.204 370.108L143.828 359.615C146.45 360.63 149.19 361.314 151.982 361.651C156.205 362.086 166.106 367.035 167.562 368.637C169.018 370.24 171.639 369.655 175.134 370.528C178.629 371.4 179.785 377.056 185.617 375.623C193.823 373.606 235.951 394.211 240.512 396.141C245.518 398.26 248.956 404.443 248.956 404.443L247.498 410.272L206.432 411.167Z" fill="#F50057"/>
<path d="M271.622 710.803L279.941 710.9L284.297 678.837L272.018 678.695L271.622 710.803Z" fill="#9E616A"/>
<path d="M268.977 705.07L282.277 704.431L282.207 710.129L294.735 719.008C295.354 719.447 295.816 720.072 296.055 720.792C296.293 721.513 296.295 722.291 296.06 723.013C295.826 723.734 295.367 724.363 294.75 724.805C294.134 725.248 293.392 725.482 292.633 725.473L276.81 725.289L274.152 719.621L273.018 725.245L267.052 725.176L268.977 705.07Z" fill="#2F2E41"/>
<path d="M167.441 702.519L175.132 705.688L191.029 677.501L179.678 672.825L167.441 702.519Z" fill="#9E616A"/>
<path d="M167.104 696.212L179.694 700.54L177.522 705.81L185.876 718.698C186.289 719.335 186.488 720.087 186.443 720.845C186.398 721.602 186.112 722.326 185.628 722.91C185.143 723.494 184.484 723.908 183.748 724.091C183.012 724.275 182.236 724.218 181.535 723.929L166.906 717.902L166.533 711.651L163.4 716.458L157.884 714.185L167.104 696.212Z" fill="#2F2E41"/>
<path d="M256.035 615.064L242.964 550.122L220.411 621.847L185.264 689.7L185.078 690.06L174.285 684.08C173.095 656.349 177.058 630.421 190.66 607.868L197.739 545.611C197.958 543.484 203.282 493.539 218.29 484.845L222.776 474.941L266.304 464.721L266.46 464.901C270.575 469.643 273.26 475.456 274.203 481.666L286.197 560.421L286.204 560.465L282.048 615.26L285.803 696.216L268.595 696.016C258.197 675.848 254.01 648.864 256.035 615.064Z" fill="#2F2E41"/>
<path d="M296.754 343.812C297.408 344.404 297.925 345.133 298.267 345.947C298.609 346.761 298.768 347.64 298.734 348.523C298.699 349.406 298.472 350.27 298.068 351.056C297.664 351.841 297.092 352.528 296.394 353.069L303.229 373.415L292.451 370.568L287.612 351.684C286.783 350.451 286.435 348.956 286.634 347.482C286.833 346.008 287.565 344.658 288.692 343.688C289.819 342.718 291.262 342.194 292.748 342.217C294.234 342.24 295.659 342.807 296.754 343.812L296.754 343.812Z" fill="#9E616A"/>
<path d="M209.724 495.883C208.556 495.869 207.895 495.632 207.644 495.137C207.276 494.411 207.942 493.476 208.713 492.392C209.251 491.638 210.814 490.142 210.056 490.041C198.561 488.5 204.966 417.545 210.071 408.215C211.109 406.319 210.072 403.38 211.254 400.157C214.481 391.353 218.771 388.686 227.317 383.372C228.011 382.941 228.733 382.49 229.484 382.021C230.456 381.412 230.428 379.356 230.398 377.179C230.365 374.76 230.33 372.258 231.534 370.708L231.612 370.607L231.737 370.58C234.609 369.951 244.257 368.833 249.939 370.8L250.017 370.828L250.075 370.887C251.414 372.259 251.505 374.887 251.593 377.429C251.665 379.515 251.733 381.485 252.489 382.349C258.27 388.955 264.919 388.905 264.986 388.905L265.316 388.899L265.345 389.227C269.357 397.102 265.78 426.132 268.413 444.222C271.088 462.6 295.678 478.503 274.422 481.029C274.467 481.1 274.492 481.182 274.493 481.266C274.495 481.35 274.473 481.433 274.431 481.505C273.119 483.888 214.129 495.934 209.724 495.883Z" fill="#F50057"/>
<path d="M306.768 407.547L294.917 413.257C272.111 421.717 260.275 419.454 254.357 416.068C248.042 412.455 247.006 407.017 246.966 406.787L246.963 406.677L248.559 395.177C248.762 393.716 249.272 392.315 250.057 391.066C250.842 389.818 251.883 388.75 253.111 387.934C254.339 387.118 255.726 386.572 257.18 386.333C258.635 386.095 260.123 386.168 261.546 386.548L288.56 393.764L288.229 380.595L289.359 375.868L287.454 370.084L288.407 358.523L298.157 356.255L308.127 374.648L306.233 379.671L307.928 382.202L307.923 382.318L306.768 407.547Z" fill="#F50057"/>
<path d="M247.562 416.095L247.513 420.057L238.545 436.142L232.889 436.076L241.825 420.245L232.549 420.137L232.601 415.921L247.562 416.095Z" fill="white"/>
<path d="M632.211 730.186L102.807 724.249C102.584 724.245 102.372 724.154 102.216 723.994C102.061 723.834 101.975 723.62 101.978 723.397C101.981 723.174 102.072 722.961 102.231 722.805C102.39 722.649 102.605 722.562 102.828 722.564L632.232 728.501C632.455 728.505 632.667 728.596 632.823 728.756C632.978 728.916 633.064 729.131 633.061 729.354C633.058 729.577 632.967 729.79 632.808 729.946C632.649 730.102 632.434 730.188 632.211 730.186Z" fill="#CACACA"/>
<path d="M472.907 319.955C479.591 306.175 474.521 289.917 465.165 285.378C455.81 280.84 439.903 286.923 433.219 300.703C427.032 313.458 431.336 328.532 438.998 334.095C438.867 334.132 438.745 334.193 438.637 334.276L436.761 335.785C436.618 335.9 436.507 336.049 436.438 336.22C436.369 336.39 436.345 336.575 436.367 336.757C436.39 336.939 436.458 337.112 436.567 337.26C436.675 337.408 436.819 337.526 436.986 337.603L441.644 339.74C441.811 339.816 441.994 339.849 442.177 339.835C442.36 339.82 442.536 339.759 442.689 339.657C442.842 339.556 442.966 339.417 443.05 339.253C443.134 339.09 443.175 338.908 443.169 338.725L443.089 336.318C443.085 336.235 443.07 336.152 443.046 336.071C452.166 338.694 466.706 332.738 472.907 319.955Z" fill="#CCCCCC"/>
<path d="M467.818 300.021C469.243 304.331 468.96 309.024 467.027 313.133C465.095 317.242 461.66 320.453 457.431 322.102C456.468 322.49 457.215 323.922 458.172 323.537C462.705 321.71 466.38 318.236 468.462 313.813C470.544 309.389 470.878 304.343 469.398 299.687C469.085 298.704 467.503 299.032 467.818 300.021Z" fill="white"/>
<path d="M586.595 367.711C599.87 360.081 604.829 343.781 599.654 334.758C594.479 325.735 577.917 321.805 564.642 329.434C552.356 336.496 547.43 351.386 550.63 360.301C550.501 360.258 550.366 360.24 550.231 360.248L547.832 360.439C547.649 360.454 547.473 360.515 547.32 360.617C547.167 360.718 547.043 360.858 546.959 361.021C546.875 361.184 546.835 361.366 546.841 361.55C546.847 361.733 546.9 361.912 546.995 362.069L549.64 366.461C549.735 366.618 549.868 366.748 550.027 366.839C550.186 366.93 550.366 366.979 550.55 366.981C550.733 366.983 550.914 366.938 551.075 366.85C551.237 366.762 551.373 366.635 551.471 366.48L552.759 364.445C552.802 364.373 552.837 364.297 552.862 364.217C558.92 371.523 574.282 374.788 586.595 367.711Z" fill="#F50057"/>
<path d="M593.607 348.361C592.36 352.727 589.485 356.449 585.577 358.757C581.669 361.066 577.025 361.786 572.604 360.769C571.59 360.547 571.402 362.152 572.409 362.372C577.181 363.415 582.171 362.613 586.38 360.128C590.588 357.643 593.703 353.659 595.1 348.974C595.394 347.985 593.903 347.365 593.607 348.361Z" fill="white"/>
<path d="M503.503 303.095C501.889 299.42 501.167 295.414 501.399 291.405C501.631 287.396 502.808 283.498 504.835 280.032C505.413 279.055 505.991 277.871 507.234 277.697C507.703 277.617 508.186 277.699 508.603 277.929C509.02 278.159 509.346 278.524 509.529 278.964C509.687 279.549 509.649 280.169 509.42 280.73C509.192 281.291 508.785 281.761 508.263 282.068C507.741 282.375 507.132 282.502 506.531 282.429C505.93 282.355 505.37 282.086 504.938 281.663C502.61 279.74 502.95 276.407 503.209 273.724C503.8 267.611 503.872 261.186 501.34 255.461C498.998 250.163 494.139 245.698 488.21 245.148C487.173 245.052 487.094 246.666 488.126 246.761C494.007 247.307 498.552 252.213 500.443 257.547C501.508 260.757 502.016 264.126 501.945 267.509C501.942 269.245 501.841 270.981 501.685 272.71C501.462 274.395 501.388 276.096 501.464 277.794C501.707 280.566 503.344 283.554 506.33 284.032C509.117 284.477 511.879 281.587 511.158 278.802C510.984 278.199 510.662 277.65 510.223 277.203C509.784 276.755 509.24 276.424 508.642 276.239C508.043 276.053 507.407 276.02 506.792 276.141C506.177 276.262 505.601 276.533 505.116 276.932C504.057 277.795 503.357 279.292 502.744 280.487C500.894 284.082 499.872 288.046 499.756 292.088C499.639 296.129 500.43 300.144 502.07 303.838C502.501 304.784 503.933 304.039 503.503 303.095L503.503 303.095Z" fill="#CCCCCC"/>
<path d="M258.909 375.551C258.315 374.433 257.308 371.244 256.134 371.273C254.932 371.312 253.731 371.196 252.56 370.927C252.433 370.905 252.306 370.875 252.186 370.845C247.243 369.549 242.167 368.825 237.059 368.688C232.937 368.583 228.406 369.026 225.492 371.943C222.578 374.86 222.927 380.949 226.879 382.12C213.595 384.263 200.006 381.082 189.057 373.267C182.097 368.247 176.551 361.566 170.674 355.314C164.798 349.054 158.31 343.027 150.322 339.906C142.328 336.777 132.502 337.088 125.962 342.666C117.986 349.465 117.232 361.315 117.095 371.793C117.039 375.713 118.273 374.899 121.707 376.786C124.896 378.536 128.225 382.098 130.221 379.058C132.218 376.017 132.611 372.236 133.059 368.625C133.5 365.014 134.134 361.215 136.459 358.419C140.458 353.611 148.215 353.651 153.614 356.792C159.013 359.933 162.602 365.36 165.995 370.607C169.388 375.847 172.969 381.288 178.361 384.45C185.445 388.601 194.411 388.104 201.813 391.657C206.516 393.92 210.295 397.664 214.177 401.141C218.065 404.618 222.33 407.973 227.414 409.143C232.491 410.32 238.557 408.706 241.117 404.158C243.424 400.045 242.386 394.733 244.447 390.483C246.037 387.204 249.224 385.055 252.102 382.81C253.287 381.882 253.551 385.126 254.562 383.992C257.447 383.452 260.216 378.007 258.909 375.551Z" fill="#3F3D56"/>
<path d="M239.157 369.467C251.495 369.61 261.622 359.718 261.775 347.371C261.927 335.024 252.049 324.899 239.71 324.755C227.371 324.612 217.245 334.505 217.092 346.851C216.939 359.198 226.818 369.323 239.157 369.467Z" fill="#2F2E41"/>
<path d="M240.932 371.333C249.799 371.185 256.873 363.872 256.731 355C256.59 346.127 249.287 339.055 240.42 339.203C231.554 339.352 224.48 346.664 224.622 355.537C224.763 364.409 232.066 371.481 240.932 371.333Z" fill="#9E616A"/>
<path d="M241.135 330.768L234.624 330.877C230.521 330.949 226.613 332.647 223.757 335.598C220.901 338.549 219.332 342.513 219.392 346.619L219.395 346.763L219.512 346.839C223.021 349.222 227.182 350.459 231.423 350.381L231.789 350.375L235.388 350.253C236.012 348.702 236.235 347.018 236.036 345.358C236.56 346.935 236.964 348.55 237.245 350.189L253.39 349.642C254.33 349.606 255.218 349.204 255.866 348.523C256.515 347.841 256.871 346.933 256.86 345.992C256.79 341.887 255.095 337.978 252.146 335.124C249.198 332.269 245.238 330.703 241.135 330.768Z" fill="#2F2E41"/>
<path d="M228.215 326.586C226.724 328.382 224.355 329.11 222.224 330.067C218.463 331.793 215.178 334.411 212.655 337.693C210.132 340.976 208.447 344.824 207.746 348.904C207.205 352.227 207.338 355.655 206.452 358.9C205.572 362.146 203.315 365.353 200.013 365.969C197.779 366.389 195.519 365.561 193.398 364.742C192.231 364.295 191.065 363.846 189.898 363.396C191.059 360.34 192.218 357.285 193.375 354.229C191.483 357.126 189.272 359.801 186.784 362.205C182.603 360.598 178.419 358.992 174.231 357.385C184.469 357.253 182.564 347.338 184.695 337.322C185.867 331.818 196.528 327.927 198.547 322.675C199.637 319.827 201.52 317.35 203.973 315.538C206.426 313.726 209.345 312.655 212.386 312.451C215.427 312.248 218.462 312.92 221.132 314.388C223.801 315.857 225.994 318.06 227.451 320.738C229.566 321.54 229.679 324.813 228.215 326.586Z" fill="#2F2E41"/>
<path d="M229.156 333.247C233.751 333.3 237.521 329.617 237.578 325.019C237.635 320.422 233.957 316.651 229.362 316.598C224.768 316.544 220.997 320.228 220.94 324.826C220.883 329.423 224.562 333.193 229.156 333.247Z" fill="#2F2E41"/>
</g>
<defs>
<clipPath id="clip0_0_1">
<rect width="531.121" height="483.552" fill="white" transform="matrix(0.999932 0.0116256 -0.0123762 0.999923 107.95 240.724)"/>
</clipPath>
</defs>
</svg>
